<?xml version="1.0" standalone="no"?>
<!DOCTYPE svg PUBLIC "-//W3C//DTD SVG 20010904//EN"
 "http://www.w3.org/TR/2001/REC-SVG-20010904/DTD/svg10.dtd">
<svg version="1.0" xmlns="http://www.w3.org/2000/svg"
 width="650.000000pt" height="650.000000pt" viewBox="0 0 650.000000 650.000000"
 preserveAspectRatio="xMidYMid meet">

<g transform="translate(0.000000,650.000000) scale(0.100000,-0.100000)"
fill="#000000" stroke="none">
<path d="M2760 5875 l-485 -485 -582 0 -583 0 0 -582 0 -583 -487 -487 -487
-488 487 -487 487 -488 0 -582 0 -583 583 0 583 0 488 -487 487 -487 487 487
487 487 582 0 583 0 0 582 0 583 487 487 488 488 -488 487 -487 487 0 583 0
583 -583 0 -583 0 -484 485 c-267 267 -487 485 -490 485 -3 0 -223 -218 -490
-485z m1965 -1155 l1470 -1470 -1473 -1473 -1472 -1472 -1472 1472 -1473 1473
1470 1470 c808 808 1472 1470 1475 1470 3 0 667 -662 1475 -1470z"/>
<path d="M2935 4374 c-102 -22 -205 -75 -279 -144 -110 -103 -156 -220 -156
-395 0 -158 34 -254 123 -351 70 -77 137 -120 349 -222 202 -98 263 -145 299
-228 31 -68 28 -160 -5 -228 -45 -91 -121 -135 -252 -143 -184 -12 -344 89
-387 245 -9 36 -15 42 -37 42 -25 0 -27 -5 -64 -157 -22 -87 -41 -163 -43
-169 -5 -15 96 -67 182 -94 87 -28 306 -39 411 -21 282 48 489 217 534 438 17
82 8 245 -17 315 -57 157 -165 251 -461 403 -176 92 -249 145 -289 212 -24 41
-28 59 -28 119 1 99 35 156 120 199 53 27 68 30 154 30 79 0 105 -4 146 -23
64 -30 126 -90 156 -153 18 -39 27 -49 43 -47 17 2 28 27 62 134 l41 132 -52
31 c-138 84 -363 114 -550 75z"/>
<path d="M1960 3428 c-1 -942 -2 -975 -50 -1086 -24 -57 -76 -110 -140 -142
-22 -11 -40 -23 -40 -27 0 -3 8 -31 17 -61 l17 -54 43 6 c83 11 227 66 298
114 123 83 199 204 241 382 15 67 18 161 21 913 l4 837 -205 0 -206 0 0 -882z"/>
<path d="M3740 3401 l0 -911 200 0 200 0 0 390 0 390 98 0 c267 0 500 78 608
204 95 109 139 287 115 461 -21 147 -91 248 -215 306 -121 56 -163 61 -603 66
l-403 5 0 -911z m619 733 c60 -17 124 -70 150 -123 52 -103 55 -292 7 -392
-52 -111 -159 -177 -303 -187 l-73 -5 0 362 0 361 83 0 c46 0 107 -7 136 -16z"/>
<path d="M2492 2338 c-7 -7 -12 -18 -12 -25 0 -9 -18 -13 -61 -13 l-60 0 27
-35 27 -36 -28 -29 -29 -30 72 0 c39 0 74 5 77 10 9 14 1592 14 1597 -1 2 -6
30 -9 72 -7 l68 3 -22 28 -23 29 22 28 c11 16 21 32 21 35 0 3 -24 5 -53 5
-45 0 -54 3 -62 23 l-10 22 -805 3 c-619 2 -809 -1 -818 -10z"/>
</g>
</svg>
